<svg id="Layer_1" data-name="Layer 1" xmlns="http://www.w3.org/2000/svg" viewBox="0 0 1200 700"><path d="M330.3,535.38a54.68,54.68,0,0,1-18.5-3,3.21,3.21,0,0,1-1.8-1.15,4.34,4.34,0,0,1-.5-2.35v-6.1c0-1.53.54-2.3,1.6-2.3a4.92,4.92,0,0,1,.8.1,10.28,10.28,0,0,1,1.1.3,70.68,70.68,0,0,0,17.5,2.5c3.94,0,7-.71,9.1-2.15a7,7,0,0,0,3.2-6.15,6.35,6.35,0,0,0-1.95-4.9c-1.3-1.2-3.91-2.53-7.85-4l-7.6-2.8q-8.89-3.3-12.8-8.05a20,20,0,0,1,3-27.05q7-5.59,18.65-5.6a53.92,53.92,0,0,1,16.9,2.8,3.19,3.19,0,0,1,1.8,1.15,4.28,4.28,0,0,1,.5,2.35v6c0,1.54-.53,2.3-1.6,2.3a11.15,11.15,0,0,1-2.1-.4,56.07,56.07,0,0,0-7.4-1.6,47.32,47.32,0,0,0-6.9-.6q-11.79,0-11.8,7.6a5.86,5.86,0,0,0,2.05,4.6q2.06,1.8,7.65,3.8l7.4,2.7q9.3,3.4,13.25,7.95T358,513.18q0,10.3-7.4,16.25T330.3,535.38Z" style="fill:#f90"/><path d="M401.2,535.38q-10.59,0-18.25-4.5a29,29,0,0,1-11.6-12.7,43.79,43.79,0,0,1-4-19.2q0-11.4,4.15-19.55A29.18,29.18,0,0,1,383.3,467a35.85,35.85,0,0,1,17.9-4.3q10.6,0,18.25,4.45a28.68,28.68,0,0,1,11.6,12.65A43.71,43.71,0,0,1,435,499q0,11.4-4.15,19.6a28.91,28.91,0,0,1-11.75,12.5A35.69,35.69,0,0,1,401.2,535.38Zm0-12.2q9,0,13.7-6.2t4.7-18q0-11.79-4.7-18t-13.7-6.15q-9,0-13.7,6.15t-4.7,18q0,11.81,4.7,18T401.2,523.18Z" style="fill:#f90"/><path d="M477.2,535.38q-13.69,0-21.15-7t-7.45-20.15v-41.3a2.58,2.58,0,0,1,.6-1.95,2.78,2.78,0,0,1,1.9-.55h10a2.77,2.77,0,0,1,1.95.55,2.72,2.72,0,0,1,.55,1.95v42q0,7,3.5,10.65t10.1,3.65q6.6,0,10.1-3.65t3.5-10.65v-42a2.58,2.58,0,0,1,.6-1.95,2.78,2.78,0,0,1,1.9-.55h10a2.77,2.77,0,0,1,1.95.55,2.72,2.72,0,0,1,.55,1.95v41.4q0,12.9-7.45,20T477.2,535.38Z" style="fill:#f90"/><path d="M538.2,533.68a2.16,2.16,0,0,1-2.5-2.5v-54.8H517.1a2.16,2.16,0,0,1-2.5-2.5v-7a2.58,2.58,0,0,1,.6-1.95,2.78,2.78,0,0,1,1.9-.55h52.2a2.77,2.77,0,0,1,2,.55,2.72,2.72,0,0,1,.55,1.95v7a2.73,2.73,0,0,1-.55,1.9,2.58,2.58,0,0,1-2,.6H550.7v54.8a2.73,2.73,0,0,1-.55,1.9,2.58,2.58,0,0,1-1.95.6Z" style="fill:#f90"/><path d="M583.5,533.68a2.16,2.16,0,0,1-2.5-2.5v-64.3a2.58,2.58,0,0,1,.6-1.95,2.78,2.78,0,0,1,1.9-.55h10a2.77,2.77,0,0,1,2,.55,2.72,2.72,0,0,1,.55,1.95v25.7h27.6v-25.7a2.58,2.58,0,0,1,.6-1.95,2.78,2.78,0,0,1,1.9-.55h10a2.77,2.77,0,0,1,1.95.55,2.72,2.72,0,0,1,.55,1.95v64.3a2.73,2.73,0,0,1-.55,1.9,2.58,2.58,0,0,1-1.95.6h-10a2.16,2.16,0,0,1-2.5-2.5v-27H596v27a2.73,2.73,0,0,1-.55,1.9,2.58,2.58,0,0,1-2,.6Z" style="fill:#f90"/><path d="M675.9,533.68c-1.34,0-2-.5-2-1.5a4,4,0,0,1,.25-1.25c.16-.5.35-1,.55-1.65L696.9,467a6.25,6.25,0,0,1,.85-1.55,2.78,2.78,0,0,1,1-.8,4.73,4.73,0,0,1,1.7-.25h11.1a3.74,3.74,0,0,1,2.35.6,4.39,4.39,0,0,1,1.25,2l22.2,62.3c.2.6.38,1.15.55,1.65a4,4,0,0,1,.25,1.25c0,1-.67,1.5-2,1.5h-11a3.77,3.77,0,0,1-2.25-.55,4,4,0,0,1-1.25-2l-4.1-13.2H693.7l-3.9,13.2a4.1,4.1,0,0,1-1.25,2,4,4,0,0,1-2.35.55Zm38.6-26.6-8.9-29-8.7,29Z" style="fill:#f90"/><path d="M765.7,535.38a54.64,54.64,0,0,1-18.5-3,3.14,3.14,0,0,1-1.8-1.15,4.25,4.25,0,0,1-.5-2.35v-6.1c0-1.53.53-2.3,1.6-2.3a5.05,5.05,0,0,1,.8.1,11,11,0,0,1,1.1.3,70.62,70.62,0,0,0,17.5,2.5c3.93,0,7-.71,9.1-2.15a7,7,0,0,0,3.2-6.15,6.35,6.35,0,0,0-2-4.9q-1.95-1.8-7.85-4l-7.6-2.8q-8.91-3.3-12.8-8.05a20,20,0,0,1,3-27.05q6.94-5.59,18.65-5.6a54,54,0,0,1,16.9,2.8,3.26,3.26,0,0,1,1.8,1.15,4.37,4.37,0,0,1,.5,2.35v6c0,1.54-.54,2.3-1.6,2.3a10.88,10.88,0,0,1-2.1-.4,56.78,56.78,0,0,0-7.4-1.6,47.55,47.55,0,0,0-6.9-.6q-11.8,0-11.8,7.6a5.83,5.83,0,0,0,2,4.6q2,1.8,7.65,3.8l7.4,2.7q9.3,3.4,13.25,7.95t3.95,11.85q0,10.3-7.4,16.25T765.7,535.38Z" style="fill:#f90"/><path d="M808.7,533.68a2.16,2.16,0,0,1-2.5-2.5v-64.3a2.58,2.58,0,0,1,.6-1.95,2.78,2.78,0,0,1,1.9-.55h10a2.07,2.07,0,0,1,2.5,2.5v64.3a2.78,2.78,0,0,1-.55,1.9,2.58,2.58,0,0,1-1.95.6Z" style="fill:#f90"/><path d="M832.7,533.68c-1.34,0-2-.5-2-1.5a4,4,0,0,1,.25-1.25c.16-.5.35-1,.55-1.65L853.7,467a5.94,5.94,0,0,1,.85-1.55,2.78,2.78,0,0,1,1.05-.8,4.69,4.69,0,0,1,1.7-.25h11.1a3.76,3.76,0,0,1,2.35.6,4.47,4.47,0,0,1,1.25,2l22.2,62.3.55,1.65a4.35,4.35,0,0,1,.25,1.25c0,1-.67,1.5-2,1.5H882a3.77,3.77,0,0,1-2.25-.55,4,4,0,0,1-1.25-2l-4.1-13.2H850.5l-3.9,13.2a4.1,4.1,0,0,1-1.25,2,4,4,0,0,1-2.35.55Zm38.6-26.6-8.9-29-8.7,29Z" style="fill:#f90"/><path d="M516.36,125.1a38.7,38.7,0,0,0,1.4,11.35,69.46,69.46,0,0,0,4.08,9.18,5.52,5.52,0,0,1,.89,2.93c0,1.28-.76,2.55-2.42,3.83l-8,5.35a6.07,6.07,0,0,1-3.31,1.15,5.87,5.87,0,0,1-3.83-1.79,40,40,0,0,1-4.59-6c-1.27-2.17-2.55-4.59-3.95-7.52q-14.93,17.6-37.48,17.59c-10.71,0-19.26-3.06-25.5-9.18s-9.44-14.28-9.44-24.48c0-10.83,3.83-19.63,11.6-26.26s18.11-9.94,31.24-9.94a100.43,100.43,0,0,1,13.51,1c4.72.63,9.57,1.65,14.67,2.8V85.83c0-9.69-2-16.44-6-20.39s-11-5.87-20.78-5.87a57.92,57.92,0,0,0-13.77,1.66,103.33,103.33,0,0,0-13.77,4.33,34.8,34.8,0,0,1-4.46,1.66,8,8,0,0,1-2,.38c-1.78,0-2.68-1.27-2.68-3.95V57.4c0-2,.26-3.57.9-4.46a9.55,9.55,0,0,1,3.57-2.68,73.53,73.53,0,0,1,16.06-5.73,77.22,77.22,0,0,1,19.89-2.43c15.17,0,26.26,3.45,33.4,10.33S516.1,69.77,516.1,83.79V125.1ZM464.6,144.48a41.33,41.33,0,0,0,13.13-2.29A28.43,28.43,0,0,0,489.84,134a20.36,20.36,0,0,0,4.34-8.16,46.05,46.05,0,0,0,1.27-11.09v-5.36a107.17,107.17,0,0,0-11.73-2.17,96,96,0,0,0-12-.76c-8.54,0-14.79,1.66-19,5.1s-6.25,8.28-6.25,14.66c0,6,1.53,10.45,4.72,13.51S458.73,144.48,464.6,144.48ZM567,158.25c-2.29,0-3.82-.38-4.84-1.27s-1.91-2.55-2.68-5l-30-98.55a22.71,22.71,0,0,1-1.15-5.1c0-2,1-3.19,3.06-3.19h12.5c2.42,0,4.08.39,5,1.28s1.79,2.55,2.55,5l21.42,84.4,19.89-84.4c.64-2.55,1.4-4.21,2.42-5a8.74,8.74,0,0,1,5.1-1.28h10.2c2.42,0,4.08.39,5.1,1.28s1.91,2.55,2.42,5l20.15,85.42,22-85.42c.77-2.55,1.66-4.21,2.55-5a8.28,8.28,0,0,1,5-1.28h11.86a2.84,2.84,0,0,1,3.19,3.19,12.38,12.38,0,0,1-.26,2,17.3,17.3,0,0,1-.89,3.19l-30.72,98.55q-1.15,3.83-2.68,5a8.13,8.13,0,0,1-4.85,1.28h-11c-2.42,0-4.08-.38-5.1-1.28s-1.91-2.55-2.42-5.1L605.1,69.77l-19.64,82.11c-.64,2.55-1.4,4.2-2.42,5.1s-2.81,1.27-5.1,1.27Zm163.83,3.44a84.3,84.3,0,0,1-19.63-2.29c-6.37-1.53-11.35-3.19-14.66-5.1a9.18,9.18,0,0,1-4-3.57,9,9,0,0,1-.77-3.57v-6.5c0-2.68,1-4,2.93-4a7.12,7.12,0,0,1,2.3.39c.76.25,1.91.76,3.19,1.27a69.41,69.41,0,0,0,14,4.46,76.54,76.54,0,0,0,15.17,1.53c8,0,14.28-1.4,18.62-4.2A13.76,13.76,0,0,0,754.65,128a12.39,12.39,0,0,0-3.45-8.92c-2.29-2.42-6.63-4.59-12.87-6.63l-18.49-5.74c-9.31-2.93-16.19-7.26-20.4-13a30.36,30.36,0,0,1-6.37-18.49,28.33,28.33,0,0,1,3.44-14.15,32.59,32.59,0,0,1,9.18-10.45A40.27,40.27,0,0,1,719,44,55.54,55.54,0,0,1,735,41.85a64.29,64.29,0,0,1,8.54.51c2.94.38,5.61.89,8.29,1.4s5,1.28,7.27,2a27.73,27.73,0,0,1,5.35,2.3,11.12,11.12,0,0,1,3.83,3.18,6.92,6.92,0,0,1,1.14,4.21v6c0,2.68-1,4.08-2.93,4.08A13.2,13.2,0,0,1,761.66,64a58.42,58.42,0,0,0-24.48-5c-7.27,0-13,1.15-17,3.57s-6,6.12-6,11.35a12,12,0,0,0,3.82,9c2.55,2.42,7.27,4.84,14,7l18.1,5.74c9.18,2.93,15.81,7,19.76,12.24a28.81,28.81,0,0,1,5.87,17.85,32.77,32.77,0,0,1-3.32,14.79,34.29,34.29,0,0,1-9.3,11.22A41.35,41.35,0,0,1,749,159,60.81,60.81,0,0,1,730.8,161.69Z" style="fill:#1c232f"/><path d="M754.9,223.65C713,254.64,652,271.08,599.61,271.08c-73.43,0-139.6-27.15-189.58-72.29-3.95-3.57-.38-8.41,4.34-5.61,54.05,31.37,120.73,50.36,189.71,50.36,46.53,0,97.66-9.69,144.7-29.58C755.79,210.78,761.78,218.55,754.9,223.65Zm17.47-19.88c-5.36-6.89-35.45-3.32-49.09-1.66-4.08.51-4.72-3.06-1-5.74,24-16.83,63.37-12,68-6.37s-1.28,45.13-23.72,64c-3.44,2.93-6.76,1.4-5.23-2.42C766.37,239,777.72,210.52,772.37,203.77Z" style="fill:#f90"/><path d="M118.36,415a69.57,69.57,0,0,1-24.7,4q-22.36,0-34-11.83T48,372.63q0-22.36,12.15-34.71t33.87-12.35a70.89,70.89,0,0,1,23,3.77v19A91.48,91.48,0,0,0,98.34,346q-12,0-18.07,6.31t-6.11,18.65v2.86q0,12.09,5.91,18.46t17.49,6.37a100.1,100.1,0,0,0,20.8-2.6Z" style="fill:#1c232f"/><path d="M170.49,419.56q-14.18,0-24.44-5.92a38.59,38.59,0,0,1-15.6-16.57q-5.34-10.67-5.33-25,0-14.69,5.59-25.28a38.42,38.42,0,0,1,15.79-16.19q10.2-5.59,24-5.59,14.16,0,24.44,5.85a38.71,38.71,0,0,1,15.66,16.51q5.4,10.66,5.4,25.09,0,14.69-5.59,25.35A38,38,0,0,1,194.54,414Q184.27,419.56,170.49,419.56Zm0-19.89q9.87,0,14.88-6.89t5-20.28q0-13.65-5.07-20.6t-14.82-7q-9.75,0-14.76,6.89t-5,20.28q0,13.51,5,20.54T170.49,399.67Z" style="fill:#1c232f"/><path d="M307.38,417.35V361.71l-15.6,35.1h-22l-15.6-35.1v55.64H232.63V327.26h26.65l21.84,48.88,22.1-48.88H329v90.09Z" style="fill:#1c232f"/><path d="M422.94,417.35V361.71l-15.6,35.1h-22l-15.6-35.1v55.64H348.19V327.26h26.65l21.84,48.88,22.1-48.88h25.74v90.09Z" style="fill:#1c232f"/><path d="M502.63,419.56q-18.72,0-29.05-9.17t-10.34-26.06V327.26h25.09v57.85q0,7.15,3.64,10.86t10.66,3.7q14.43,0,14.43-14.56V327.26h25.09v57.2q0,16.77-10.4,25.93T502.63,419.56Z" style="fill:#1c232f"/><path d="M582.45,360.93v56.42H560.87V327.26h26l31.59,56.94V327.26H640v90.09H614Z" style="fill:#1c232f"/><path d="M659.8,417.35V327.26h25.09v90.09Z" style="fill:#1c232f"/><path d="M722.33,417.35V346.89H696.2V327.26h77.35v19.63H747.42v70.46Z" style="fill:#1c232f"/><path d="M810.34,417.35V383.42l-30.16-56.16h27.43l16,38.22,16.25-38.22H866l-30.55,56.42v33.67Z" style="fill:#1c232f"/><path d="M908.1,417.35V327.26h35.23q20.79,0,32.24,11.7T987,372.24q0,14.17-5.07,24.38a35.06,35.06,0,0,1-14.5,15.46q-9.42,5.28-22.55,5.27Zm25.09-70.85v51.61h8.58q19.62,0,19.63-24.7v-2.34q0-24.57-19.37-24.57Z" style="fill:#1c232f"/><path d="M1054.08,417.35l-4.94-17.42h-27.56l-4.68,17.42H990.38l31.73-90.09h27.68l31.73,90.09Zm-27.81-35.1h18.19l-9.23-33.41Z" style="fill:#1c232f"/><path d="M1103.09,417.35V383.42l-30.16-56.16h27.43l16,38.22,16.25-38.22h26.13l-30.55,56.42v33.67Z" style="fill:#1c232f"/><path d="M236.22,632.25a2.58,2.58,0,0,1-1.59-.36,4,4,0,0,1-.86-1.58L217.07,585a6.39,6.39,0,0,1-.44-1.66c0-.62.39-.94,1.16-.94h4.68a2.54,2.54,0,0,1,1.54.33,3.72,3.72,0,0,1,.83,1.62l13.75,40.61,13.76-40.61a3.74,3.74,0,0,1,.82-1.62,2.57,2.57,0,0,1,1.55-.33h4.39c.77,0,1.16.32,1.16.94a6.39,6.39,0,0,1-.44,1.66l-16.7,45.36a4,4,0,0,1-.86,1.58,2.58,2.58,0,0,1-1.59.36Z" style="fill:#1c232f"/><path d="M269.27,632.25a1.27,1.27,0,0,1-1.44-1.44v-47a1.27,1.27,0,0,1,1.44-1.44h4.46a1.27,1.27,0,0,1,1.44,1.44v47a1.27,1.27,0,0,1-1.44,1.44Z" style="fill:#1c232f"/><path d="M289,632.25a1.27,1.27,0,0,1-1.44-1.44v-47a1.27,1.27,0,0,1,1.44-1.44h16.78q7.28,0,11.59,4t4.32,10.76a14.06,14.06,0,0,1-2.7,8.61,15.22,15.22,0,0,1-7.59,5.29L323.27,630a2.78,2.78,0,0,1,.57,1.44.76.76,0,0,1-.29.61,1.14,1.14,0,0,1-.79.25h-4A5,5,0,0,1,317,632a1.81,1.81,0,0,1-.9-.86l-11.67-19h-9.72v18.65a1.27,1.27,0,0,1-1.44,1.44Zm15.84-25.92q4.62,0,7-2.3t2.42-6.84q0-4.47-2.31-6.74t-6.84-2.26H294.68v18.14Z" style="fill:#1c232f"/><path d="M344.07,632.25a1.27,1.27,0,0,1-1.44-1.44V588.4H328.16a1.27,1.27,0,0,1-1.44-1.44v-3.17a1.27,1.27,0,0,1,1.44-1.44h36.29a1.27,1.27,0,0,1,1.44,1.44V587a1.27,1.27,0,0,1-1.44,1.44H350v42.41a1.27,1.27,0,0,1-1.44,1.44Z" style="fill:#1c232f"/><path d="M392.38,633.47q-9.5,0-14.58-5T372.73,614V583.79a1.27,1.27,0,0,1,1.44-1.44h4.46a1.27,1.27,0,0,1,1.44,1.44v30.89q0,6,3.17,9.32t9.14,3.28q6,0,9.15-3.28t3.17-9.32V583.79a1.27,1.27,0,0,1,1.44-1.44h4.46a1.27,1.27,0,0,1,1.44,1.44V614q0,9.36-5.08,14.4T392.38,633.47Z" style="fill:#1c232f"/><path d="M418,632.25c-.82,0-1.23-.31-1.23-.94a5.8,5.8,0,0,1,.43-1.65l16.85-45.36a3.28,3.28,0,0,1,.9-1.62,2.77,2.77,0,0,1,1.55-.33H441a2.77,2.77,0,0,1,1.55.33,3.28,3.28,0,0,1,.9,1.62l16.85,45.36a5.47,5.47,0,0,1,.43,1.65c0,.63-.41.94-1.22.94h-4.11a2.73,2.73,0,0,1-1.54-.33,3.13,3.13,0,0,1-.9-1.61L449,619H428.31l-3.81,11.31a3.28,3.28,0,0,1-.9,1.61,2.79,2.79,0,0,1-1.55.33Zm29.08-18.79L438.61,589l-8.35,24.48Z" style="fill:#1c232f"/><path d="M469.35,632.25a1.27,1.27,0,0,1-1.44-1.44v-47a1.27,1.27,0,0,1,1.44-1.44h4.47a1.27,1.27,0,0,1,1.44,1.44V626.2h22.1a1.27,1.27,0,0,1,1.44,1.44v3.17a1.27,1.27,0,0,1-1.44,1.44Z" style="fill:#1c232f"/><path d="M525.94,632.25a1.27,1.27,0,0,1-1.44-1.44v-47a1.27,1.27,0,0,1,1.44-1.44h28.15a1.27,1.27,0,0,1,1.44,1.44v3a1.27,1.27,0,0,1-1.44,1.44H531.85v15.33h18.43a1.27,1.27,0,0,1,1.44,1.44v3a1.27,1.27,0,0,1-1.44,1.44H531.85v16.85h22.24a1.27,1.27,0,0,1,1.44,1.44v3a1.27,1.27,0,0,1-1.44,1.44Z" style="fill:#1c232f"/><path d="M566.33,632.25a1.27,1.27,0,0,1-1.44-1.44v-47a1.27,1.27,0,0,1,1.44-1.44h15q11,0,16.81,6.38t5.8,18.61q0,12.09-5.91,18.5t-16.92,6.41Zm5.91-5.76h8.06q16.05,0,16.06-18.36v-1.66q0-9.13-4-13.75t-12-4.61h-8.06Z" style="fill:#1c232f"/><path d="M616.3,632.25a1.27,1.27,0,0,1-1.44-1.44v-47a1.27,1.27,0,0,1,1.44-1.44h4.46a1.28,1.28,0,0,1,1.45,1.44v47a1.28,1.28,0,0,1-1.45,1.44Z" style="fill:#1c232f"/><path d="M647,632.25a1.27,1.27,0,0,1-1.44-1.44V588.4H631.06a1.27,1.27,0,0,1-1.44-1.44v-3.17a1.27,1.27,0,0,1,1.44-1.44h36.29a1.27,1.27,0,0,1,1.44,1.44V587a1.27,1.27,0,0,1-1.44,1.44H652.88v42.41a1.27,1.27,0,0,1-1.44,1.44Z" style="fill:#1c232f"/><path d="M677.64,632.25a1.27,1.27,0,0,1-1.44-1.44v-47a1.27,1.27,0,0,1,1.44-1.44h4.47a1.27,1.27,0,0,1,1.44,1.44v47a1.27,1.27,0,0,1-1.44,1.44Z" style="fill:#1c232f"/><path d="M717.89,633.47a24,24,0,0,1-12.63-3.2,20.39,20.39,0,0,1-8-9.07,32.43,32.43,0,0,1-2.74-13.86,32,32,0,0,1,2.85-14,20.12,20.12,0,0,1,8.1-9,24.29,24.29,0,0,1,12.45-3.06q10.88,0,17.1,7t6.23,19.12a32.07,32.07,0,0,1-2.84,14.07,20.51,20.51,0,0,1-8.1,9A24,24,0,0,1,717.89,633.47Zm0-6.19q7.71,0,11.74-5.11t4-14.83q0-9.72-4-14.8t-11.74-5.08q-7.77,0-11.81,5.08t-4,14.8q0,9.79,4.07,14.87T717.89,627.28Z" style="fill:#1c232f"/><path d="M753.32,632.25a1.27,1.27,0,0,1-1.44-1.44v-47a1.27,1.27,0,0,1,1.44-1.44h4.6a2.86,2.86,0,0,1,2.74,1.3l23.76,38.59V583.79a1.27,1.27,0,0,1,1.44-1.44h3.89a1.27,1.27,0,0,1,1.44,1.44v47a1.27,1.27,0,0,1-1.44,1.44h-4.68a2.94,2.94,0,0,1-2.74-1.3l-23.69-38.37v38.23a1.27,1.27,0,0,1-1.44,1.44Z" style="fill:#1c232f"/><path d="M822.36,632.25a1.27,1.27,0,0,1-1.44-1.44v-2.74a3.36,3.36,0,0,1,1-2.45q9-9.21,13.72-14.61a59.15,59.15,0,0,0,6.76-9,13.86,13.86,0,0,0,2.06-6.84,7.37,7.37,0,0,0-2.2-5.65,8.35,8.35,0,0,0-5.94-2.06,17.87,17.87,0,0,0-5.8,1,24,24,0,0,0-5.72,2.84,2.88,2.88,0,0,1-1.51.65c-.68,0-1-.5-1-1.51V588a2.65,2.65,0,0,1,.22-1.26,3.32,3.32,0,0,1,1.08-1,24.12,24.12,0,0,1,6.58-3.39,23.52,23.52,0,0,1,7.24-1.08q6.55,0,10.55,3.68a12.56,12.56,0,0,1,4,9.72,17.3,17.3,0,0,1-1.94,7.74,47.89,47.89,0,0,1-6.73,9.43q-4.8,5.5-14.08,14.43h23.62a1.27,1.27,0,0,1,1.44,1.44v3.1a1.27,1.27,0,0,1-1.44,1.44Z" style="fill:#1c232f"/><path d="M879.39,633.33q-8.86,0-13.61-6.73T861,607.27q0-12.54,4.71-19.27t13.65-6.73q8.85,0,13.6,6.7t4.76,19.3q0,12.6-4.72,19.33T879.39,633.33Zm0-6.05a8.89,8.89,0,0,0,8.35-4.79q2.65-4.79,2.66-15.22t-2.66-15.12a9.64,9.64,0,0,0-16.71,0q-2.65,4.82-2.66,15.12T871,622.46A8.9,8.9,0,0,0,879.39,627.28Z" style="fill:#1c232f"/><path d="M906.75,632.25a1.27,1.27,0,0,1-1.44-1.44v-2.74a3.35,3.35,0,0,1,1-2.45q9-9.21,13.72-14.61a60,60,0,0,0,6.77-9,13.85,13.85,0,0,0,2.05-6.84,7.34,7.34,0,0,0-2.2-5.65,8.33,8.33,0,0,0-5.94-2.06,17.86,17.86,0,0,0-5.79,1,24.3,24.3,0,0,0-5.73,2.84,2.85,2.85,0,0,1-1.51.65c-.67,0-1-.5-1-1.51V588a2.78,2.78,0,0,1,.22-1.26,3.32,3.32,0,0,1,1.08-1,24.17,24.17,0,0,1,6.59-3.39,23.4,23.4,0,0,1,7.23-1.08q6.56,0,10.55,3.68a12.53,12.53,0,0,1,4,9.72,17.32,17.32,0,0,1-2,7.74,47.47,47.47,0,0,1-6.73,9.43q-4.78,5.5-14.07,14.43H937.2a1.27,1.27,0,0,1,1.44,1.44v3.1a1.27,1.27,0,0,1-1.44,1.44Z" style="fill:#1c232f"/><path d="M965.43,632.25a1.27,1.27,0,0,1-1.44-1.44V589.48L952.47,594a3.85,3.85,0,0,1-1.52.43c-.57,0-.86-.34-.86-1v-2.52a3.59,3.59,0,0,1,.22-1.47,1.56,1.56,0,0,1,.86-.76l11.66-5.54a11.38,11.38,0,0,1,1.73-.65,5.89,5.89,0,0,1,1.44-.15h3.75a1.27,1.27,0,0,1,1.44,1.44v47a1.27,1.27,0,0,1-1.44,1.44Z" style="fill:#1c232f"/><line x1="48" y1="498.86" x2="293" y2="498.86" style="fill:none;stroke:#1c232f;stroke-miterlimit:10;stroke-width:5px"/><line x1="914" y1="499.36" x2="1159" y2="499.36" style="fill:none;stroke:#1c232f;stroke-miterlimit:10;stroke-width:5px"/></svg>