<svg id="Layer_1" data-name="Layer 1" xmlns="http://www.w3.org/2000/svg" viewBox="0 0 800 400"><g id="User_Groups" data-name="User Groups"><g style="isolation:isolate"><path d="M97.62,147.58h8.48V211q0,18.82-9.63,28.74T68.6,249.61q-18.25,0-27.88-9.91T31.09,211V147.58h8.48v65q0,14.09,7.47,21.63t21.56,7.54q14.07,0,21.55-7.54t7.47-21.63Z" style="fill:#a166ff"/><path d="M163.29,228.2a8.89,8.89,0,0,0-2.8-6.61q-2.81-2.73-9.41-5.17L138,211.53q-15.37-5.75-15.37-18.82a17.86,17.86,0,0,1,6.68-14.45q6.67-5.52,17.46-5.53a51.38,51.38,0,0,1,10.49,1.15A52,52,0,0,1,167.32,177v6.76a69.49,69.49,0,0,0-21-3.74q-7.77,0-11.79,3.09t-4,9.13c0,3.25.93,5.77,2.8,7.54s5.53,3.71,11,5.82L155.82,210q8,3,11.71,7.4a16.33,16.33,0,0,1,3.67,10.85q0,9.78-7.12,15.45t-19.32,5.68a51.68,51.68,0,0,1-23.43-5.18V237.4a71.05,71.05,0,0,0,24,4.6q8.76,0,13.37-3.52T163.29,228.2Z" style="fill:#a166ff"/><path d="M190.17,212.39q.14,15.09,6.61,22.28t20,7.18a57.8,57.8,0,0,0,23.71-5v6.76q-10.2,5.74-24.28,5.75-17.12,0-25.73-9.7t-8.62-28.82q0-18.1,8.7-28.09t24.35-10q13.08,0,20.05,7.48t7,21.41a56.59,56.59,0,0,1-.86,10.77Zm24-32.33q-22.69,0-24,25.72h43.68q.15-2,.15-4.74,0-10.35-5-15.66T214.16,180.06Z" style="fill:#a166ff"/><path d="M258.57,247.17V174.89h7.18l.86,10.49a35.86,35.86,0,0,1,10.71-8.55,27.06,27.06,0,0,1,11.86-2.52,50.1,50.1,0,0,1,5.89.43v7.33q-3.74-.28-6.75-.28a26.81,26.81,0,0,0-11.72,2.44,31.1,31.1,0,0,0-9.84,7.9v55Z" style="fill:#a166ff"/><path d="M390.34,240.85a64.92,64.92,0,0,0,19.26-2.59V204.92H384v-7.61h34.06v45.26q-12.65,6.18-29.17,6.18-47.57,0-47.57-51,0-25,12.07-38.16t34.92-13.15A65.18,65.18,0,0,1,414.77,152v7.33a112,112,0,0,0-13.86-3.88,60.83,60.83,0,0,0-11.86-1.15q-19.83,0-29.32,10.06t-9.48,31.47v3.59q0,21.12,9.84,31.26T390.34,240.85Z" style="fill:#a166ff"/><path d="M438.48,247.17V174.89h7.19l.86,10.49a35.86,35.86,0,0,1,10.71-8.55,27,27,0,0,1,11.85-2.52,50.1,50.1,0,0,1,5.89.43v7.33q-3.74-.28-6.75-.28a26.76,26.76,0,0,0-11.71,2.44,31.1,31.1,0,0,0-9.84,7.9v55Z" style="fill:#a166ff"/><path d="M514.65,249.33q-15.81,0-24.58-10.13T481.31,211q0-18.11,8.76-28.17t24.58-10.06q15.81,0,24.57,10.06T548,211q0,18.1-8.77,28.24T514.65,249.33Zm0-7.48q24.86,0,24.86-30.89t-24.86-30.75q-24.87,0-24.86,30.75Q489.79,241.86,514.65,241.85Z" style="fill:#a166ff"/><path d="M615.24,247.17l-.86-7.9q-13.67,10-28.31,10.06-10.35,0-15.88-5.61t-5.53-16.38V174.89h8.19v49q0,9.48,3.59,13.73t11.35,4.23A39.8,39.8,0,0,0,601,239.7a56.23,56.23,0,0,0,13.22-7V174.89h8.2v72.28Z" style="fill:#a166ff"/><path d="M643.4,276.77V174.89h7.19l.72,8.05a49.42,49.42,0,0,1,12.86-7.76A35,35,0,0,1,677,172.73q13.94,0,22,10t8,27.38q0,17.67-8.47,28.16t-22.85,10.49q-13.23,0-24.15-9.77v37.79Zm32.05-96.56q-11.93,0-23.86,9.19v42.11a45.25,45.25,0,0,0,11.5,7.4,30,30,0,0,0,11.79,2.37q11.77,0,17.74-7.69t6-22.92Q698.59,180.21,675.45,180.21Z" style="fill:#a166ff"/><path d="M761.1,228.2a8.9,8.9,0,0,0-2.81-6.61q-2.79-2.73-9.41-5.17l-13.08-4.89q-15.37-5.75-15.37-18.82a17.86,17.86,0,0,1,6.68-14.45q6.67-5.52,17.46-5.53a51.38,51.38,0,0,1,10.49,1.15A52,52,0,0,1,765.12,177v6.76a69.49,69.49,0,0,0-21-3.74q-7.75,0-11.78,3.09t-4,9.13c0,3.25.94,5.77,2.8,7.54s5.54,3.71,11,5.82L753.62,210q8.05,3,11.72,7.4A16.37,16.37,0,0,1,769,228.2q0,9.78-7.11,15.45t-19.33,5.68a51.68,51.68,0,0,1-23.43-5.18V237.4a71.05,71.05,0,0,0,24,4.6q8.77,0,13.37-3.52T761.1,228.2Z" style="fill:#a166ff"/></g></g><g id="AWS"><g style="isolation:isolate"><path d="M58.43,115l-2.75-8.84H42.42L39.79,115H31L44.66,76.18h9.23L67.55,115ZM44.21,100.08H54L49,83.85Z" style="fill:#fff"/><path d="M98.39,115,92.23,87.6,86.3,115H77.18L66.43,76.18h9.29l6.16,29.66L88,77.13h8.85l6.26,28.6,6-29.55h9.07L107.57,115Z" style="fill:#fff"/><path d="M131.07,98c-3.32-1.23-5.7-2.73-7.16-4.51a11.22,11.22,0,0,1,1.71-15.14q3.88-3.14,10.43-3.13a29.9,29.9,0,0,1,10.75,2v6.39A34.24,34.24,0,0,0,136.73,82c-4.41,0-6.61,1.41-6.61,4.25a3.25,3.25,0,0,0,1.15,2.57,14,14,0,0,0,4.28,2.13l4.14,1.51q5.2,1.91,7.42,4.45a9.78,9.78,0,0,1,2.21,6.63,11,11,0,0,1-4.14,9.1q-4.14,3.33-11.37,3.33a34.09,34.09,0,0,1-6.26-.59,24.06,24.06,0,0,1-5.38-1.59v-6.38a46.66,46.66,0,0,0,6,1.34,36.8,36.8,0,0,0,5.77.5A9.1,9.1,0,0,0,139,108a3.9,3.9,0,0,0,1.79-3.44,3.56,3.56,0,0,0-1.09-2.75,14.63,14.63,0,0,0-4.39-2.23Z" style="fill:#fff"/></g></g><g id="Chicago_Suburbs" data-name="Chicago Suburbs"><g style="isolation:isolate"><path d="M33.11,299.81l4-.35a8.79,8.79,0,0,0,1.33,4,7.17,7.17,0,0,0,3.24,2.51,12.19,12.19,0,0,0,4.94.95,11.94,11.94,0,0,0,4.31-.72,6,6,0,0,0,2.78-2,4.66,4.66,0,0,0,.91-2.76,4.14,4.14,0,0,0-.88-2.64,6.45,6.45,0,0,0-2.9-1.9,55.5,55.5,0,0,0-5.74-1.58,29.21,29.21,0,0,1-6.21-2,8.59,8.59,0,0,1-3.44-3,7.29,7.29,0,0,1-1.13-4,8.24,8.24,0,0,1,1.38-4.56,8.55,8.55,0,0,1,4-3.21,15.25,15.25,0,0,1,5.91-1.1A16.12,16.12,0,0,1,52,278.55,9.11,9.11,0,0,1,56.2,282,9.7,9.7,0,0,1,57.78,287l-4.09.31a6.59,6.59,0,0,0-2.23-4.62,8.67,8.67,0,0,0-5.61-1.56c-2.58,0-4.46.48-5.64,1.42A4.27,4.27,0,0,0,38.44,286a3.63,3.63,0,0,0,1.26,2.85q1.23,1.13,6.42,2.3a41.49,41.49,0,0,1,7.13,2.06,9.73,9.73,0,0,1,4.16,3.28,8,8,0,0,1,1.34,4.58,8.78,8.78,0,0,1-1.47,4.85A9.77,9.77,0,0,1,53,309.44a14.56,14.56,0,0,1-6.2,1.27,18.52,18.52,0,0,1-7.33-1.28,10.24,10.24,0,0,1-4.64-3.83A10.81,10.81,0,0,1,33.11,299.81Z" style="fill:#a166ff"/><path d="M62.82,294.47q0-8,4.31-12.56a14.66,14.66,0,0,1,11.12-4.53,15.44,15.44,0,0,1,8,2.13,13.88,13.88,0,0,1,5.46,5.94,19.33,19.33,0,0,1,1.88,8.65,18.93,18.93,0,0,1-2,8.76,13.57,13.57,0,0,1-5.6,5.86,16.09,16.09,0,0,1-7.82,2,15.15,15.15,0,0,1-8.13-2.2,14.07,14.07,0,0,1-5.43-6A18.16,18.16,0,0,1,62.82,294.47Zm4.4.07q0,5.82,3.13,9.17a10.92,10.92,0,0,0,15.77,0q3.12-3.39,3.11-9.61a16.4,16.4,0,0,0-1.33-6.86A10.2,10.2,0,0,0,84,282.66,10.55,10.55,0,0,0,78.27,281a10.92,10.92,0,0,0-7.79,3.11Q67.21,287.27,67.22,294.54Z" style="fill:#a166ff"/><path d="M119.81,278h4.26v18.61a21.84,21.84,0,0,1-1.1,7.71,9.44,9.44,0,0,1-4,4.65,14.08,14.08,0,0,1-7.53,1.79,15.44,15.44,0,0,1-7.4-1.56,8.91,8.91,0,0,1-4.11-4.52,21.51,21.51,0,0,1-1.23-8.07V278H103v18.59a18.14,18.14,0,0,0,.78,6.18,5.91,5.91,0,0,0,2.68,3.07,9.4,9.4,0,0,0,4.65,1.07c3.13,0,5.37-.71,6.7-2.13s2-4.15,2-8.19Z" style="fill:#a166ff"/><path d="M138.92,310.16V281.75H128.3V278h25.53v3.8H143.18v28.41Z" style="fill:#a166ff"/><path d="M157.89,310.16V278h4.26v13.22H178.9V278h4.26v32.21H178.9V295H162.15v15.19Z" style="fill:#a166ff"/><path d="M195.84,310.16,208.21,278h4.59L226,310.16h-4.85l-3.76-9.76H203.9l-3.54,9.76Zm9.29-13.23h10.92L212.69,288q-1.55-4.06-2.29-6.68a40.3,40.3,0,0,1-1.73,6.15Z" style="fill:#a166ff"/><path d="M227.49,299.81l4-.35a8.79,8.79,0,0,0,1.33,4,7.28,7.28,0,0,0,3.24,2.51,12.19,12.19,0,0,0,4.94.95,11.91,11.91,0,0,0,4.31-.72,6,6,0,0,0,2.78-2,4.59,4.59,0,0,0,.91-2.76,4.14,4.14,0,0,0-.88-2.64,6.39,6.39,0,0,0-2.9-1.9,54.28,54.28,0,0,0-5.73-1.58,29.35,29.35,0,0,1-6.22-2,8.66,8.66,0,0,1-3.44-3,7.38,7.38,0,0,1-1.13-4,8.24,8.24,0,0,1,1.38-4.56,8.63,8.63,0,0,1,4.05-3.21,15.18,15.18,0,0,1,5.91-1.1,16.16,16.16,0,0,1,6.32,1.15,9.08,9.08,0,0,1,4.2,3.4,9.7,9.7,0,0,1,1.58,5.07l-4.08.31a6.63,6.63,0,0,0-2.23-4.62,8.7,8.7,0,0,0-5.62-1.56c-2.57,0-4.45.48-5.63,1.42a4.27,4.27,0,0,0-1.77,3.42,3.65,3.65,0,0,0,1.25,2.85q1.23,1.13,6.43,2.3a41.78,41.78,0,0,1,7.13,2.06,9.69,9.69,0,0,1,4.15,3.28,8,8,0,0,1,1.34,4.58,8.78,8.78,0,0,1-1.47,4.85,9.69,9.69,0,0,1-4.23,3.53,14.64,14.64,0,0,1-6.21,1.27,18.55,18.55,0,0,1-7.33-1.28,10.22,10.22,0,0,1-4.63-3.83A10.91,10.91,0,0,1,227.49,299.81Z" style="fill:#a166ff"/><path d="M259.23,310.16V278h4.26v32.21Z" style="fill:#a166ff"/><path d="M267,310.16,279.39,278H284l13.19,32.21h-4.86l-3.76-9.76H275.08l-3.54,9.76Zm9.29-13.23h10.92L283.87,288c-1-2.71-1.79-4.94-2.28-6.68a40.34,40.34,0,0,1-1.74,6.15Z" style="fill:#a166ff"/></g></g></svg>