<svg id="Layer_1" data-name="Layer 1" xmlns="http://www.w3.org/2000/svg" viewBox="0 0 2700 1300"><rect width="2000.36" height="975.26" style="fill:#a10fff"/><rect y="975" width="1999.5" height="325" style="fill:#ff6e17"/><rect x="2000" y="303.11" width="700" height="996.89" style="fill:#1c232f"/><rect x="2000" width="700" height="303" style="fill:#ff6e17"/><path d="M228.8,390.72,218.16,353.2H158.8l-10.08,37.52H91.6l68.32-194h59.64l68.32,194Zm-59.92-75.6h39.2l-19.88-72Z" style="fill:#fff"/><path d="M443.56,390.72,416.12,263.88,389.24,390.72H332.4L280,196.68H339.4L362.08,330.8,389.8,200.6h54.88L472.4,332.76l23-136.08h57.4l-52.08,194Z" style="fill:#fff"/><path d="M617.44,312.32q-26.61-9.24-38.36-23.24T567.32,252.4q0-18.48,10.08-32.2t27.58-21q17.49-7.27,40.18-7.28A154.46,154.46,0,0,1,700.88,202v39.2a187.29,187.29,0,0,0-51.24-7.56q-28.85,0-28.84,15.12,0,5.61,5,9.52t18.48,8.4l16.8,5.6q28.83,9.53,41,22.82t12.18,35.42q0,30.81-22,47.88T630.6,395.48a182,182,0,0,1-33-2.94,119.1,119.1,0,0,1-27.16-8V344.8a262.53,262.53,0,0,0,30.38,6,215.74,215.74,0,0,0,30.38,2.38q14.55,0,21.56-3.78a12.61,12.61,0,0,0,7-11.9,13.2,13.2,0,0,0-1.82-7.28q-1.83-2.79-7-5.46a151.41,151.41,0,0,0-17.22-6.86Z" style="fill:#fff"/><path d="M257.64,635.68q-22.95,8.67-53.2,8.68-48.15,0-73.22-25.48T106.16,544.4q0-48.15,26.18-74.76T205.28,443a152.45,152.45,0,0,1,49.56,8.12V492q-23.52-5-40.32-5-25.76,0-38.92,13.58t-13.16,40.18v6.16q0,26,12.74,39.76t37.66,13.72q19,0,44.8-5.6Z" style="fill:#fff"/><path d="M369.92,645.48q-30.53,0-52.64-12.74a83.23,83.23,0,0,1-33.6-35.7q-11.49-22.95-11.48-53.76,0-31.63,12-54.46a82.8,82.8,0,0,1,34-34.86q22-12,51.66-12,30.51,0,52.64,12.6a83.41,83.41,0,0,1,33.74,35.56q11.61,23,11.62,54,0,31.65-12,54.6a81.6,81.6,0,0,1-34.16,34.86Q399.6,645.47,369.92,645.48Zm0-42.84q21.27,0,32.06-14.84t10.78-43.68q0-29.4-10.92-44.38t-31.92-15q-21,0-31.78,14.84t-10.78,43.68q0,29.13,10.78,44.24T369.92,602.64Z" style="fill:#fff"/><path d="M664.76,640.72V520.88l-33.6,75.6H583.84l-33.6-75.6V640.72H503.76v-194h57.4L608.2,552l47.6-105.28h55.44v194Z" style="fill:#fff"/><path d="M913.68,640.72V520.88l-33.6,75.6H832.75l-33.59-75.6V640.72H752.68v-194h57.4l47,105.28,47.59-105.28h55.45v194Z" style="fill:#fff"/><path d="M1085.31,645.48q-40.32,0-62.58-19.74t-22.26-56.14V446.68h54v124.6q0,15.4,7.84,23.38t23,8q31.08,0,31.08-31.36V446.68h54v123.2q0,36.12-22.4,55.86T1085.31,645.48Z" style="fill:#fff"/><path d="M1257.23,519.2V640.72h-46.48v-194h56l68,122.64V446.68h46.48v194h-56Z" style="fill:#fff"/><path d="M1423.83,640.72v-194h54v194Z" style="fill:#fff"/><path d="M1558.51,640.72V489h-56.28V446.68h166.6V489h-56.28V640.72Z" style="fill:#fff"/><path d="M1748.06,640.72V567.64l-65-121h59.08L1776.62,529l35-82.32h56.28L1802.1,568.2v72.52Z" style="fill:#fff"/><path d="M111.76,890.72v-194h75.88q44.81,0,69.44,25.2t24.64,71.68q0,30.53-10.92,52.5t-31.22,33.32Q219.29,890.72,191,890.72Zm54-152.6V849.28h18.48q42.29,0,42.28-53.2v-5q0-52.92-41.72-52.92Z" style="fill:#fff"/><path d="M426.2,890.72,415.56,853.2H356.2l-10.08,37.52H289l68.32-194H417l68.32,194Zm-59.92-75.6h39.2l-19.88-72Z" style="fill:#fff"/><path d="M531.76,890.72V817.64l-65-121h59.08L560.32,779l35-82.32H651.6L585.8,818.2v72.52Z" style="fill:#fff"/><path d="M2297.75,557.33V507.44H2302v49.89Z" style="fill:#fff"/><path d="M2339.94,557.33V532.71q0-4.68-1.8-6.8t-5.76-2.13a24.86,24.86,0,0,0-14,4.61v28.94h-4.1V521.12h3.6l.43,4.17a29.87,29.87,0,0,1,7.41-3.88,22.84,22.84,0,0,1,7.56-1.37c3.51,0,6.18.92,8,2.77s2.77,4.57,2.77,8.17v26.35Z" style="fill:#fff"/><path d="M2381.34,557.33l-.43-4a21.48,21.48,0,0,1-5.94,3.53,17.24,17.24,0,0,1-6.3,1.3,13.85,13.85,0,0,1-11.27-5q-4.14-5-4.14-13.71,0-8.92,4.18-14.15a13.77,13.77,0,0,1,11.37-5.22,17.84,17.84,0,0,1,12.1,4.75V504.06h4.1v53.27Zm-11.74-3q5.4,0,11.31-4.61V528.46a23.08,23.08,0,0,0-5.8-3.56,15.64,15.64,0,0,0-5.87-1.12q-5.76,0-8.74,3.89t-3,11.52Q2357.51,554.39,2369.6,554.38Z" style="fill:#fff"/><path d="M2398.62,513.34a3,3,0,0,1-2.27-.86,3.62,3.62,0,0,1,0-4.61,3.43,3.43,0,0,1,4.54,0,3.62,3.62,0,0,1,0,4.61A3,3,0,0,1,2398.62,513.34Zm-2.09,44V521.12h4.11v36.21Z" style="fill:#fff"/><path d="M2434,557.33l-.36-4.17a20.47,20.47,0,0,1-13,5,10.78,10.78,0,0,1-7.88-2.85,10.09,10.09,0,0,1-2.92-7.59,10.22,10.22,0,0,1,3.6-8.28q3.6-3,9.79-3a35.78,35.78,0,0,1,10.3,1.66v-6q0-4.4-2.09-6.3c-1.39-1.27-3.7-1.91-6.91-1.91a37.07,37.07,0,0,0-12.31,2.31V522.7a30.63,30.63,0,0,1,6.19-1.94,33.11,33.11,0,0,1,6.77-.72q6.33,0,9.39,2.66t3.06,8.07v26.56Zm-12.74-3a17.91,17.91,0,0,0,5.9-1.11,32.92,32.92,0,0,0,6.41-3.14v-9a36.22,36.22,0,0,0-9.36-1.29q-10.08,0-10.08,7.77a6.66,6.66,0,0,0,1.8,5A7.39,7.39,0,0,0,2421.23,554.38Z" style="fill:#fff"/><path d="M2285.94,613.7v43.63h-4.1V607.44h4.89l28.44,43.77V607.44h4.11v49.89h-4.9Z" style="fill:#fff"/><path d="M2333.53,639.91q.07,7.56,3.31,11.16t10,3.6a29,29,0,0,0,11.88-2.52v3.39a24.51,24.51,0,0,1-12.17,2.88q-8.57,0-12.88-4.87t-4.32-14.43q0-9.07,4.35-14.08c2.91-3.33,7-5,12.21-5q6.54,0,10,3.74t3.49,10.73a28.06,28.06,0,0,1-.43,5.4Zm12-16.2q-11.39,0-12,12.89h21.89c0-.67.07-1.46.07-2.38,0-3.45-.84-6.07-2.52-7.84S2348.82,623.71,2345.56,623.71Z" style="fill:#fff"/><path d="M2368.52,672.17v-51h3.6l.36,4a25.22,25.22,0,0,1,6.45-3.89,17.66,17.66,0,0,1,6.44-1.22,13.4,13.4,0,0,1,11,5q4,5,4,13.72t-4.25,14.11a13.94,13.94,0,0,1-11.45,5.26,17.7,17.7,0,0,1-12.09-4.9v18.94Zm16.06-48.39q-6,0-11.95,4.61v21.1a22.69,22.69,0,0,0,5.76,3.71,15,15,0,0,0,5.9,1.18q5.91,0,8.89-3.85t3-11.48Q2396.17,623.78,2384.58,623.78Z" style="fill:#fff"/><path d="M2431.59,657.33l-.35-4.17a20.47,20.47,0,0,1-13,5,10.79,10.79,0,0,1-7.89-2.85,11.31,11.31,0,0,1,.69-15.87q3.59-3,9.79-3a35.77,35.77,0,0,1,10.29,1.66v-6q0-4.4-2.08-6.3c-1.4-1.27-3.7-1.91-6.92-1.91a37.11,37.11,0,0,0-12.31,2.31V622.7a30.63,30.63,0,0,1,6.19-1.94,33.18,33.18,0,0,1,6.77-.72q6.33,0,9.4,2.66t3.06,8.07v26.56Zm-12.74-3a17.91,17.91,0,0,0,5.9-1.11,32.65,32.65,0,0,0,6.41-3.14v-9a36.1,36.1,0,0,0-9.36-1.29q-10.08,0-10.08,7.77a6.66,6.66,0,0,0,1.8,5A7.39,7.39,0,0,0,2418.85,654.38Z" style="fill:#fff"/><path d="M2456.15,657.05a14.39,14.39,0,0,1-3.67.5,5.91,5.91,0,0,1-4.5-1.69,6.55,6.55,0,0,1-1.62-4.72V604.06h4.1v47a3.2,3.2,0,0,0,.61,2.23,3,3,0,0,0,2.2.65,23,23,0,0,0,2.88-.22Z" style="fill:#fff"/><path d="M2239.9,732.13a20.32,20.32,0,0,1-8.14-5.14,10.85,10.85,0,0,1-2.59-7.38,12.23,12.23,0,0,1,4.28-9.69q4.29-3.7,11.27-3.71a31.8,31.8,0,0,1,6.66.76,34.08,34.08,0,0,1,6.59,2.12v3.68a39.8,39.8,0,0,0-13-2.6q-5.55,0-8.5,2.42a8.36,8.36,0,0,0-3,6.87,8,8,0,0,0,.9,4.07,8.35,8.35,0,0,0,3,2.81,35.69,35.69,0,0,0,5.87,2.7l7.7,3a18,18,0,0,1,7.56,4.93,11.17,11.17,0,0,1,2.38,7.31,12.88,12.88,0,0,1-4.72,10.37q-4.71,4-12.42,4a32.42,32.42,0,0,1-14.25-3v-3.68a41,41,0,0,0,13.89,2.74q6,0,9.54-2.81a9.18,9.18,0,0,0,3.57-7.63,7.11,7.11,0,0,0-1.95-5,16.6,16.6,0,0,0-6.26-3.74Z" style="fill:#fff"/><path d="M2270.35,757.33V721.12h3.6l.44,5.26a17.94,17.94,0,0,1,5.36-4.29,13.56,13.56,0,0,1,5.94-1.26,23.31,23.31,0,0,1,2.95.22v3.67c-1.25-.1-2.37-.14-3.38-.14a13.36,13.36,0,0,0-5.87,1.22,15.58,15.58,0,0,0-4.93,4v27.57Z" style="fill:#fff"/><path d="M2297.5,713.34a3,3,0,0,1-2.27-.86,3.62,3.62,0,0,1,0-4.61,3.41,3.41,0,0,1,4.53,0,3.62,3.62,0,0,1,0,4.61A3,3,0,0,1,2297.5,713.34Zm-2.09,44V721.12h4.1v36.21Z" style="fill:#fff"/><path d="M2330.62,757.33V707.44h4.24v46.08h25.06v3.81Z" style="fill:#fff"/><path d="M2388.29,757.33l-.36-4.17a20.47,20.47,0,0,1-13,5,10.81,10.81,0,0,1-7.89-2.85,10.11,10.11,0,0,1-2.91-7.59,10.22,10.22,0,0,1,3.6-8.28q3.6-3,9.79-3a35.72,35.72,0,0,1,10.29,1.66v-6q0-4.4-2.08-6.3c-1.4-1.27-3.7-1.91-6.92-1.91a37.11,37.11,0,0,0-12.31,2.31V722.7a30.83,30.83,0,0,1,6.19-1.94,33.18,33.18,0,0,1,6.77-.72q6.35,0,9.4,2.66t3.06,8.07v26.56Zm-12.75-3a18,18,0,0,0,5.91-1.11,32.85,32.85,0,0,0,6.4-3.14v-9a36.1,36.1,0,0,0-9.36-1.29q-10.08,0-10.08,7.78a6.65,6.65,0,0,0,1.8,5A7.39,7.39,0,0,0,2375.54,754.38Z" style="fill:#fff"/><path d="M2428.75,757.33V732.71q0-4.68-1.8-6.8t-5.76-2.13a24.86,24.86,0,0,0-14,4.61v28.94h-4.1V721.12h3.6l.43,4.17a29.75,29.75,0,0,1,7.42-3.88,22.74,22.74,0,0,1,7.55-1.37c3.51,0,6.18.92,8,2.77s2.77,4.57,2.77,8.17v26.35Z" style="fill:#fff"/><path d="M2443.94,757.33V704.05h4.11v33.2L2466,721.12h5.62l-19.22,17.13,20.44,19.08h-5.9l-18.86-17.71v17.71Z" style="fill:#fff"/><path d="M2500.39,757.33l-.36-4.17a20.47,20.47,0,0,1-13,5,10.82,10.82,0,0,1-7.89-2.85,10.11,10.11,0,0,1-2.91-7.59,10.22,10.22,0,0,1,3.6-8.28q3.6-3,9.79-3A35.78,35.78,0,0,1,2500,738v-6q0-4.4-2.09-6.3c-1.39-1.27-3.7-1.91-6.91-1.91a37.07,37.07,0,0,0-12.31,2.31V722.7a30.43,30.43,0,0,1,6.19-1.94,33.11,33.11,0,0,1,6.77-.72q6.33,0,9.39,2.66t3.06,8.07v26.56Zm-12.74-3a17.91,17.91,0,0,0,5.9-1.11,32.92,32.92,0,0,0,6.41-3.14v-9a36.22,36.22,0,0,0-9.36-1.29q-10.08,0-10.08,7.78a6.65,6.65,0,0,0,1.8,5A7.37,7.37,0,0,0,2487.65,754.38Z" style="fill:#fff"/><path d="M2190.76,857.33V807.44H2206q6.77,0,10.87,3.56a12,12,0,0,1,4.11,9.54q0,7.71-6.63,10.73a13,13,0,0,1,7,4.47,12.43,12.43,0,0,1,2.44,7.84,12.81,12.81,0,0,1-4.14,10q-4.14,3.71-11,3.7Zm4.1-46.08V829.9h10.95q10.65,0,10.65-9.36t-10.65-9.29Zm0,22.47v19.8h13.61q5.33,0,8.06-2.52t2.74-7.42q0-4.89-2.7-7.38t-8-2.48Z" style="fill:#fff"/><path d="M2254.76,857.33l-.35-4.17a20.47,20.47,0,0,1-13,5,10.79,10.79,0,0,1-7.89-2.85,11.31,11.31,0,0,1,.69-15.87q3.59-3,9.79-3a35.77,35.77,0,0,1,10.29,1.66v-6q0-4.4-2.08-6.3c-1.4-1.27-3.7-1.91-6.92-1.91a37.11,37.11,0,0,0-12.31,2.31V822.7a30.63,30.63,0,0,1,6.19-1.94A33.18,33.18,0,0,1,2246,820q6.33,0,9.4,2.66t3.06,8.07v26.56Zm-12.74-3a17.91,17.91,0,0,0,5.9-1.11,32.65,32.65,0,0,0,6.41-3.14v-9a36.1,36.1,0,0,0-9.36-1.29q-10.08,0-10.08,7.78a6.69,6.69,0,0,0,1.8,5A7.43,7.43,0,0,0,2242,854.38Z" style="fill:#fff"/><path d="M2295.23,857.33V832.71q0-4.68-1.8-6.8t-5.76-2.13a24.86,24.86,0,0,0-14,4.61v28.94h-4.1V821.12h3.59l.44,4.17a29.87,29.87,0,0,1,7.41-3.88,22.79,22.79,0,0,1,7.56-1.37c3.51,0,6.18.92,8,2.77s2.77,4.57,2.77,8.17v26.35Z" style="fill:#fff"/><path d="M2335.91,852a21.71,21.71,0,0,1-5.91,3.53,16.71,16.71,0,0,1-6.19,1.29,13.82,13.82,0,0,1-11.09-4.93q-4.17-4.93-4.17-13.07,0-8.72,4.14-13.75a13.81,13.81,0,0,1,11.27-5,17.29,17.29,0,0,1,12,4.82l.43-3.74h3.6v34.56q0,8.49-4.32,12.92T2323.17,873a23.62,23.62,0,0,1-11.74-2.74v-3.38a31.38,31.38,0,0,0,11.52,2.38q6.69,0,9.83-3.32t3.13-10.43Zm-11.16,1.08q5.4,0,11.16-4.61v-20a22.28,22.28,0,0,0-5.69-3.56,15.36,15.36,0,0,0-5.83-1.12q-5.76,0-8.68,3.75t-2.91,11.09q0,7.05,3.06,10.76T2324.75,853.09Z" style="fill:#fff"/><path d="M2361,857.05a14.41,14.41,0,0,1-3.68.5,5.93,5.93,0,0,1-4.5-1.69,6.55,6.55,0,0,1-1.62-4.72V804.05h4.11v47a3.2,3.2,0,0,0,.61,2.23,2.94,2.94,0,0,0,2.2.65,24.88,24.88,0,0,0,2.88-.21Z" style="fill:#fff"/><path d="M2391.06,857.33l-.36-4.17a20.47,20.47,0,0,1-13,5,10.78,10.78,0,0,1-7.88-2.85,10.09,10.09,0,0,1-2.92-7.59,10.22,10.22,0,0,1,3.6-8.28q3.6-3,9.79-3a35.78,35.78,0,0,1,10.3,1.66v-6q0-4.4-2.09-6.3c-1.39-1.27-3.7-1.91-6.91-1.91a37.07,37.07,0,0,0-12.31,2.31V822.7a30.43,30.43,0,0,1,6.19-1.94,33.11,33.11,0,0,1,6.77-.72q6.33,0,9.39,2.66t3.06,8.07v26.56Zm-12.74-3a17.91,17.91,0,0,0,5.9-1.11,32.92,32.92,0,0,0,6.41-3.14v-9a36.22,36.22,0,0,0-9.36-1.29q-10.08,0-10.08,7.78a6.69,6.69,0,0,0,1.8,5A7.41,7.41,0,0,0,2378.32,854.38Z" style="fill:#fff"/><path d="M2432,857.33l-.43-4a21.48,21.48,0,0,1-5.94,3.53,17,17,0,0,1-6.3,1.3,13.84,13.84,0,0,1-11.27-5q-4.14-5-4.14-13.71,0-8.92,4.17-14.15A13.8,13.8,0,0,1,2419.5,820a17.86,17.86,0,0,1,12.1,4.75V804.05h4.1v53.28Zm-11.74-3q5.4,0,11.31-4.6V828.46a23.08,23.08,0,0,0-5.8-3.56,15.64,15.64,0,0,0-5.87-1.12q-5.76,0-8.75,3.89t-3,11.52Q2408.2,854.39,2420.29,854.38Z" style="fill:#fff"/><path d="M2449.24,839.91q.06,7.56,3.31,11.16t10,3.6a29.07,29.07,0,0,0,11.88-2.52v3.39a24.53,24.53,0,0,1-12.17,2.88q-8.57,0-12.89-4.87t-4.32-14.43q0-9.07,4.36-14.08t12.2-5q6.55,0,10,3.74t3.5,10.73a28,28,0,0,1-.44,5.4Zm12-16.2q-11.37,0-12,12.89h21.88c.05-.67.08-1.46.08-2.38,0-3.45-.84-6.07-2.52-7.84S2464.52,823.71,2461.26,823.71Z" style="fill:#fff"/><path d="M2502.66,847.83a4.45,4.45,0,0,0-1.41-3.31,13.5,13.5,0,0,0-4.71-2.59l-6.55-2.45q-7.71-2.88-7.71-9.43a9,9,0,0,1,3.35-7.24,13.26,13.26,0,0,1,8.75-2.77,25.2,25.2,0,0,1,5.26.58,25.85,25.85,0,0,1,5,1.58v3.38a34.77,34.77,0,0,0-10.52-1.87,9.57,9.57,0,0,0-5.9,1.55,5.42,5.42,0,0,0-2,4.57,5,5,0,0,0,1.41,3.78,18,18,0,0,0,5.51,2.92l5.76,2.16a13.86,13.86,0,0,1,5.86,3.7,8.18,8.18,0,0,1,1.84,5.44,9.37,9.37,0,0,1-3.56,7.74q-3.57,2.85-9.69,2.85a25.81,25.81,0,0,1-11.73-2.6v-3.38a35.51,35.51,0,0,0,12,2.3c2.93,0,5.16-.58,6.7-1.76A6.1,6.1,0,0,0,2502.66,847.83Z" style="fill:#fff"/><path d="M2540.24,857.33V832.71q0-4.68-1.8-6.8t-5.76-2.13a24.86,24.86,0,0,0-14,4.61v28.94h-4.1V804.05h4.1v21.17a31.18,31.18,0,0,1,7.38-3.81,22.49,22.49,0,0,1,7.53-1.37q5.25,0,8,2.77c1.84,1.85,2.77,4.57,2.77,8.17v26.35Z" style="fill:#fff"/><path d="M2306.26,1078.21a28.33,28.33,0,0,0,1,8.3,49.74,49.74,0,0,0,3,6.71,4.14,4.14,0,0,1,.65,2.15,3.7,3.7,0,0,1-1.77,2.8l-5.88,3.92a4.54,4.54,0,0,1-2.42.83,4.26,4.26,0,0,1-2.8-1.3,28.56,28.56,0,0,1-3.36-4.38c-.93-1.59-1.86-3.36-2.89-5.51q-10.9,12.87-27.42,12.87c-7.83,0-14.08-2.23-18.65-6.71s-6.91-10.45-6.91-17.91c0-7.93,2.8-14.36,8.49-19.21s13.25-7.28,22.85-7.28a73.32,73.32,0,0,1,9.89.75c3.45.47,7,1.21,10.72,2v-6.81c0-7.09-1.49-12-4.38-14.92s-8-4.29-15.2-4.29a42.34,42.34,0,0,0-10.07,1.21,75.16,75.16,0,0,0-10.08,3.17,26.57,26.57,0,0,1-3.26,1.22,6,6,0,0,1-1.49.28c-1.31,0-2-.94-2-2.9v-4.57a5.85,5.85,0,0,1,.65-3.26,7.06,7.06,0,0,1,2.61-2,53.76,53.76,0,0,1,11.75-4.2,56.66,56.66,0,0,1,14.55-1.77c11.1,0,19.22,2.52,24.44,7.56s7.74,12.68,7.74,22.94v30.22Zm-37.87,14.18a30.23,30.23,0,0,0,9.61-1.68,20.83,20.83,0,0,0,8.86-6,14.81,14.81,0,0,0,3.17-6,33.48,33.48,0,0,0,.93-8.12v-3.91a75.13,75.13,0,0,0-8.58-1.59,70.88,70.88,0,0,0-8.77-.56c-6.25,0-10.82,1.21-13.89,3.73s-4.57,6.06-4.57,10.73c0,4.38,1.12,7.65,3.45,9.88S2264.1,1092.39,2268.39,1092.39Zm74.89,10.07a5.23,5.23,0,0,1-3.54-.93,7.6,7.6,0,0,1-2-3.64l-21.92-72.1a16.3,16.3,0,0,1-.84-3.73,2,2,0,0,1,2.24-2.33h9.14c1.77,0,3,.28,3.64.93s1.31,1.87,1.87,3.64l15.66,61.74,14.55-61.74c.47-1.86,1-3.08,1.78-3.64a6.4,6.4,0,0,1,3.73-.93h7.46a5.64,5.64,0,0,1,3.73.93,6.26,6.26,0,0,1,1.77,3.64l14.74,62.49,16.13-62.49a8.07,8.07,0,0,1,1.87-3.64,6.08,6.08,0,0,1,3.64-.93h8.67a2.07,2.07,0,0,1,2.33,2.33,8.56,8.56,0,0,1-.19,1.49,13.32,13.32,0,0,1-.65,2.34L2404.65,1098a7.19,7.19,0,0,1-2,3.64,6,6,0,0,1-3.55.93h-8a5.64,5.64,0,0,1-3.73-.93,6.57,6.57,0,0,1-1.77-3.73l-14.46-60.16-14.36,60.07a7.41,7.41,0,0,1-1.77,3.73,5.82,5.82,0,0,1-3.73.93Zm119.85,2.52a61.63,61.63,0,0,1-14.36-1.68,42.59,42.59,0,0,1-10.73-3.73,6.77,6.77,0,0,1-2.89-2.61,6.68,6.68,0,0,1-.56-2.62v-4.75c0-2,.75-2.89,2.15-2.89a5.19,5.19,0,0,1,1.68.28c.56.18,1.4.56,2.33.93a50.21,50.21,0,0,0,10.26,3.26,55.74,55.74,0,0,0,11.1,1.12c5.87,0,10.44-1,13.61-3.08a10,10,0,0,0,4.85-8.86,9.09,9.09,0,0,0-2.51-6.52c-1.68-1.78-4.85-3.36-9.42-4.85l-13.53-4.2c-6.81-2.15-11.84-5.32-14.92-9.51a22.23,22.23,0,0,1-4.66-13.53,20.82,20.82,0,0,1,2.51-10.35,23.92,23.92,0,0,1,6.72-7.65,29.75,29.75,0,0,1,9.7-4.85,40.62,40.62,0,0,1,11.75-1.58,46.8,46.8,0,0,1,6.25.37c2.14.28,4.1.65,6.06,1s3.64.94,5.32,1.5a20.56,20.56,0,0,1,3.92,1.68,8,8,0,0,1,2.79,2.33,5,5,0,0,1,.84,3.07v4.39c0,2-.74,3-2.14,3a9.65,9.65,0,0,1-3.55-1.12,42.69,42.69,0,0,0-17.9-3.63c-5.32,0-9.52.84-12.41,2.61s-4.38,4.47-4.38,8.3a8.79,8.79,0,0,0,2.8,6.62c1.86,1.77,5.31,3.54,10.26,5.13l13.24,4.2c6.71,2.14,11.56,5.13,14.46,9a21.13,21.13,0,0,1,4.29,13.06,23.92,23.92,0,0,1-2.43,10.82,25.15,25.15,0,0,1-6.81,8.21,30,30,0,0,1-10.35,5.22A44.55,44.55,0,0,1,2463.13,1105Z" style="fill:#fff"/><path d="M2480.76,1150.3c-30.68,22.67-75.27,34.7-113.6,34.7-53.72,0-102.13-19.87-138.69-52.88-2.89-2.61-.28-6.16,3.17-4.11,39.55,23,88.33,36.84,138.79,36.84a276.87,276.87,0,0,0,105.85-21.63C2481.41,1140.88,2485.8,1146.57,2480.76,1150.3Zm12.78-14.55c-3.92-5-25.93-2.42-35.91-1.21-3,.38-3.45-2.24-.75-4.19,17.54-12.32,46.36-8.77,49.72-4.67s-.94,33-17.35,46.82c-2.52,2.15-4.95,1-3.83-1.77C2489.15,1161.5,2497.46,1140.7,2493.54,1135.75Z" style="fill:#f90"/><path d="M2135.91,181.65V165.57q13.56-13.08,21-21.12a99.14,99.14,0,0,0,10.74-13.26q3.3-5.22,3.3-9.3a6.93,6.93,0,0,0-2.16-5.28,8,8,0,0,0-5.76-2q-10.56,0-25,9.72V106.41a45.8,45.8,0,0,1,28.56-10q12.6,0,20,6.24t7.44,16.68a28.12,28.12,0,0,1-3,12.24,60.12,60.12,0,0,1-10,13.86,228.65,228.65,0,0,1-19.92,18.66h36.12v17.52Z" style="fill:#fff"/><path d="M2237.55,183.45q-15.72,0-24.12-11.28t-8.4-32.28q0-21,8.34-32.22t24.18-11.22q15.72,0,24.12,11.22t8.4,32.22q0,21-8.34,32.28T2237.55,183.45Zm0-17.76a7.09,7.09,0,0,0,5.64-2.34q2-2.34,3-7.86a96.76,96.76,0,0,0,1-15.6q0-14.4-2.1-20t-7.5-5.64a7.09,7.09,0,0,0-5.64,2.34q-2,2.34-3,7.8a95.59,95.59,0,0,0-1,15.54q0,14.52,2.1,20.16T2237.55,165.69Z" style="fill:#fff"/><path d="M2279.43,181.65V165.57q13.56-13.08,21-21.12a99.14,99.14,0,0,0,10.74-13.26q3.3-5.22,3.3-9.3a6.93,6.93,0,0,0-2.16-5.28,8,8,0,0,0-5.76-2q-10.56,0-25,9.72V106.41a45.8,45.8,0,0,1,28.56-10q12.6,0,20,6.24t7.44,16.68a28.12,28.12,0,0,1-3,12.24,60.12,60.12,0,0,1-10,13.86,228.65,228.65,0,0,1-19.92,18.66h36.12v17.52Z" style="fill:#fff"/><path d="M2375.55,181.65V120.21l-20.16,5V108.57l23.16-10.08h19.92v83.16Z" style="fill:#fff"/><path d="M2133.34,221.89a27.11,27.11,0,0,1,2.28-11.55,16.82,16.82,0,0,1,6.69-7.53,20.13,20.13,0,0,1,10.53-2.64q9.06,0,14.25,5.79t5.19,15.93a27.11,27.11,0,0,1-2.28,11.55,17.06,17.06,0,0,1-6.66,7.56,19.79,19.79,0,0,1-10.5,2.67,20.15,20.15,0,0,1-10.32-2.55,17,17,0,0,1-6.78-7.47A26.59,26.59,0,0,1,2133.34,221.89Zm6.3,0q0,8.16,3.39,12.39t9.81,4.23q6.42,0,9.78-4.26t3.36-12.36q0-8.1-3.36-12.33t-9.78-4.23q-6.48,0-9.84,4.23T2139.64,221.89Z" style="fill:#fff"/><path d="M2201.62,241.51a17.26,17.26,0,0,1-8,1.8q-7.08,0-10.83-4.05T2179,227.53q0-7.62,3.87-11.79t11-4.17a17.41,17.41,0,0,1,7.56,1.68v4.26a22.24,22.24,0,0,0-6.72-1.08q-5,0-7.26,2.55t-2.22,8.13v.78q0,5.46,2.25,8t7.11,2.55a23.87,23.87,0,0,0,7.08-1.2Z" style="fill:#fff"/><path d="M2225.92,241.93a18.31,18.31,0,0,1-6.66,1.14q-8.52,0-8.52-8.52V216.91h-5.52v-3.84l5.7-.72.9-8.64h4.86v8.52h9v4.68h-9v17.34a4.08,4.08,0,0,0,1,3.12,5,5,0,0,0,3.39.9,20,20,0,0,0,4.86-.6Z" style="fill:#fff"/><path d="M2247.1,242.65V238q8.64-8.76,12.63-13.41a45.51,45.51,0,0,0,5.49-7.47,11.41,11.41,0,0,0,1.5-5.34,6.13,6.13,0,0,0-1.83-4.71,7,7,0,0,0-4.95-1.71q-5.34,0-11.7,4.5v-5.1a21.52,21.52,0,0,1,6-3.45,19.14,19.14,0,0,1,6.63-1.11,12.48,12.48,0,0,1,8.79,3.06,10.48,10.48,0,0,1,3.33,8.1,14.64,14.64,0,0,1-1.8,6.81,41.94,41.94,0,0,1-5.85,8q-4,4.56-11.31,11.52h20.88v5Z" style="fill:#fff"/><path d="M2282.26,242.65V238q8.64-8.76,12.63-13.41a45.51,45.51,0,0,0,5.49-7.47,11.41,11.41,0,0,0,1.5-5.34,6.13,6.13,0,0,0-1.83-4.71,7,7,0,0,0-5-1.71q-5.34,0-11.7,4.5v-5.1a21.52,21.52,0,0,1,6-3.45,19.14,19.14,0,0,1,6.63-1.11,12.48,12.48,0,0,1,8.79,3.06,10.48,10.48,0,0,1,3.33,8.1,14.64,14.64,0,0,1-1.8,6.81,41.94,41.94,0,0,1-5.85,8q-4,4.56-11.31,11.52H2310v5Z" style="fill:#fff"/><path d="M2316.16,229.63v-5H2334v5Z" style="fill:#fff"/><path d="M2340.82,242.65V238q8.64-8.76,12.63-13.41a45.51,45.51,0,0,0,5.49-7.47,11.41,11.41,0,0,0,1.5-5.34,6.13,6.13,0,0,0-1.83-4.71,7,7,0,0,0-5-1.71q-5.34,0-11.7,4.5v-5.1a21.52,21.52,0,0,1,6-3.45,19.14,19.14,0,0,1,6.63-1.11,12.48,12.48,0,0,1,8.79,3.06,10.48,10.48,0,0,1,3.33,8.1,14.64,14.64,0,0,1-1.8,6.81,41.94,41.94,0,0,1-5.85,8q-4.05,4.56-11.31,11.52h20.88v5Z" style="fill:#fff"/><path d="M2388.4,218.89a3.05,3.05,0,0,1,.6-.06h.6q5.94,0,9.42,3.21a11.15,11.15,0,0,1,3.48,8.61,11.58,11.58,0,0,1-4.23,9.39q-4.23,3.51-11.37,3.51a27.76,27.76,0,0,1-11.16-2.4v-4.8a36.64,36.64,0,0,0,11.16,2.16q4.56,0,7-2a7.13,7.13,0,0,0,2.46-5.82q0-7.26-9.18-7.26a53.85,53.85,0,0,0-5.7.3v-4L2394.1,206h-17.76v-4.92h24.42v4.74Z" style="fill:#fff"/><path d="M107.41,110.11q-5.91-2.22-8.57-5.4a12,12,0,0,1-2.66-8,13,13,0,0,1,2-7.16,13.71,13.71,0,0,1,5.8-4.93,20.47,20.47,0,0,1,8.89-1.8,37.42,37.42,0,0,1,13.32,2.59v5.83A44.37,44.37,0,0,0,113.38,89c-3.12,0-5.53.63-7.23,1.91a6.36,6.36,0,0,0-2.56,5.43,6.1,6.1,0,0,0,1.73,4.57q1.73,1.69,6.41,3.42l6.55,2.45q5.84,2.16,8.39,5.22a11.91,11.91,0,0,1,2.55,7.89,13.58,13.58,0,0,1-4.93,11Q119.35,135,111,135a32.79,32.79,0,0,1-14.4-3v-5.76a45.14,45.14,0,0,0,14.25,2.52q5.11,0,8-2.23a7.2,7.2,0,0,0,2.92-6,6.15,6.15,0,0,0-1.69-4.42,16.16,16.16,0,0,0-5.73-3.35Z" style="fill:#fff"/><path d="M153.92,134.88q-8.21,0-12.82-5.11t-4.6-14.26q0-9.06,4.6-14.18t12.82-5.11q8.21,0,12.82,5.11t4.6,14.18q0,9.15-4.6,14.26T153.92,134.88Zm0-5.76q10.16,0,10.15-13.61T153.92,102q-10.15,0-10.15,13.53T153.92,129.12Z" style="fill:#fff"/><path d="M205,133.8l-.8-3.89a22.77,22.77,0,0,1-13.75,5c-3.41,0-6-1-7.85-2.88s-2.73-4.63-2.73-8.13V97.3H187v24.26q0,3.89,1.51,5.73c1,1.22,2.61,1.83,4.82,1.83a18.92,18.92,0,0,0,10.44-3.45V97.3h7.13v36.5Z" style="fill:#fff"/><path d="M242.05,132.94a22.07,22.07,0,0,1-8,1.37q-10.22,0-10.22-10.23V102.91h-6.62v-4.6l6.84-.87,1.08-10.37H231V97.3h10.8v5.61H231v20.81c0,1.78.39,3,1.19,3.75s2.14,1.08,4.06,1.08a24,24,0,0,0,5.84-.72Z" style="fill:#fff"/><path d="M273.8,133.8V109.39q0-3.81-1.55-5.61t-4.86-1.8a19.82,19.82,0,0,0-11.16,3.67V133.8H249.1V80.52h7.13V101a24,24,0,0,1,14-4.82c3.5,0,6.17.92,8,2.77s2.74,4.52,2.74,8V133.8Z" style="fill:#fff"/><path d="M342.85,133.8l-4.61-13.25H317.72l-4.47,13.25h-7.56l18.44-49.89h7.92l18.43,49.89ZM319.59,115h16.78l-8.43-24.48Z" style="fill:#fff"/><path d="M373.66,124a3.75,3.75,0,0,0-1.11-2.81,12.21,12.21,0,0,0-4.07-2.16l-6.12-2.3q-8-3-8-10.08A9.19,9.19,0,0,1,358,99.1a14.9,14.9,0,0,1,9.54-2.88,25.6,25.6,0,0,1,10.73,2.3v5a34.14,34.14,0,0,0-10.37-1.8q-6.91,0-6.91,4.68a3.83,3.83,0,0,0,1.15,3,14.91,14.91,0,0,0,4.54,2.38l5.61,2.16a14.74,14.74,0,0,1,6.12,3.92,8.93,8.93,0,0,1,1.88,5.87,9.87,9.87,0,0,1-3.82,8.14q-3.83,3-10.15,3a26.57,26.57,0,0,1-12.39-2.73v-5a40.44,40.44,0,0,0,12.53,2.23,8.94,8.94,0,0,0,5.37-1.37A4.64,4.64,0,0,0,373.66,124Z" style="fill:#fff"/><path d="M391.52,90.82a4.43,4.43,0,0,1-3.28-1.19,4.71,4.71,0,0,1,0-6.26,5.1,5.1,0,0,1,6.55,0,4.71,4.71,0,0,1,0,6.26A4.42,4.42,0,0,1,391.52,90.82Zm-3.6,43V97.3H395v36.5Z" style="fill:#fff"/><path d="M427.44,133.8l-.57-3.74a19.55,19.55,0,0,1-5.73,3.45,16.88,16.88,0,0,1-6.22,1.23,11.35,11.35,0,0,1-8.18-2.92,11.37,11.37,0,0,1,.69-16.2q3.74-3.14,10.08-3.13a37.84,37.84,0,0,1,9.07,1.22V109q0-3.88-1.76-5.47c-1.18-1.06-3.18-1.58-6-1.58a39.15,39.15,0,0,0-12.67,2.23v-5A23.89,23.89,0,0,1,412.47,97a38.31,38.31,0,0,1,7.56-.75q6.84,0,10.08,2.84t3.24,8.68V133.8Zm-10.8-4.46a16.93,16.93,0,0,0,9.94-3.67v-7.35a31.56,31.56,0,0,0-7.63-.93q-8.15,0-8.14,6.26a5.64,5.64,0,0,0,1.51,4.21A5.91,5.91,0,0,0,416.64,129.34Z" style="fill:#fff"/><path d="M2567.22,77c-4.29-.6-3.69,35.55-26.78,54-23.73,18.92-60.24,9.4-60.76,14.06s38.23,3.5,54.76,27.12c14.92,21.31,4.07,51.8,9.07,52.84,5.27,1.09,7.91-34.77,32.91-50.45,22.29-14,50.86-4.68,51.55-8.87.71-4.34-31.53-4.58-48.35-25.91C2560.56,115.6,2571.72,77.62,2567.22,77Z" style="fill:#fff"/><path d="M119.8,1161.85a26.72,26.72,0,0,1-13.54-3.27,21.48,21.48,0,0,1-8.64-9.19,30.49,30.49,0,0,1-3-13.82,29.55,29.55,0,0,1,3.1-14,21.37,21.37,0,0,1,8.74-9,27.3,27.3,0,0,1,13.29-3.09,26.88,26.88,0,0,1,13.53,3.24,21.4,21.4,0,0,1,8.68,9.14,30.46,30.46,0,0,1,3,13.9,29.81,29.81,0,0,1-3.1,14,21,21,0,0,1-8.78,9A27.69,27.69,0,0,1,119.8,1161.85Zm0-11q5.48,0,8.24-3.81t2.77-11.23q0-7.56-2.8-11.41a9.53,9.53,0,0,0-8.21-3.86c-3.6,0-6.33,1.27-8.17,3.82s-2.78,6.29-2.78,11.23.93,8.78,2.78,11.38S116.2,1150.83,119.8,1150.83Z" style="fill:#fff"/><path d="M176.25,1160.63v-24.34a5,5,0,0,0-.83-3.17,3.4,3.4,0,0,0-2.77-1,10.85,10.85,0,0,0-5.62,1.8v26.71H153.49v-37.08h11l1.15,3.74a25.67,25.67,0,0,1,6.63-3.67,20.21,20.21,0,0,1,6.84-1.15c3.45,0,6.09.93,7.92,2.81s2.73,4.53,2.73,8v27.36Z" style="fill:#fff"/><path d="M218.15,1160.2a20,20,0,0,1-7.92,1.51c-3.84,0-6.7-1-8.57-3.1s-2.81-5.18-2.81-9.36v-41.9h13.54v40.82a4.63,4.63,0,0,0,.65,2.74,2.54,2.54,0,0,0,2.16.86,17.55,17.55,0,0,0,3-.29Z" style="fill:#fff"/><path d="M230.82,1118.87a7.91,7.91,0,0,1-5.51-1.87,7,7,0,0,1,0-9.94,9.05,9.05,0,0,1,11,0,7,7,0,0,1,0,9.94A7.91,7.91,0,0,1,230.82,1118.87Zm-6.77,41.76v-37.08h13.54v37.08Z" style="fill:#fff"/><path d="M269.56,1160.63v-24.34a5,5,0,0,0-.83-3.17,3.4,3.4,0,0,0-2.77-1,10.85,10.85,0,0,0-5.62,1.8v26.71H246.8v-37.08h11l1.15,3.74a25.67,25.67,0,0,1,6.63-3.67,20.21,20.21,0,0,1,6.84-1.15c3.45,0,6.09.93,7.92,2.81s2.73,4.53,2.73,8v27.36Z" style="fill:#fff"/><path d="M302.6,1145.51a6.69,6.69,0,0,0,2.78,5.22c1.6,1.08,4,1.62,7.23,1.62a42.48,42.48,0,0,0,11.23-1.88v8.28a26.47,26.47,0,0,1-6.55,2.17,37.63,37.63,0,0,1-7.56.79q-19.44,0-19.44-19.59,0-9.21,5-14.43t13.82-5.22q7.5,0,11.6,4t4.1,11.42a35.62,35.62,0,0,1-.25,3.92c-.17,1.51-.35,2.75-.54,3.71Zm6.12-14a5.57,5.57,0,0,0-4.17,1.62,7.7,7.7,0,0,0-1.95,4.64h10.8v-.86Q313.4,1131.47,308.72,1131.47Z" style="fill:#fff"/><path d="M350.63,1160.63v-49.9H385.4v10.51H364.16V1130h17.28v10.51H364.16v9.65h21.39v10.51Z" style="fill:#fff"/><path d="M405.06,1161.42a13.26,13.26,0,0,1-11.06-5.11q-4-5.11-4-14a26,26,0,0,1,2-10.59,15.64,15.64,0,0,1,5.51-6.84,14.12,14.12,0,0,1,8.06-2.37,14.38,14.38,0,0,1,8.71,2.73v-17.85h13.54v53.28H416.43l-1.08-3.31a13.65,13.65,0,0,1-4.64,3A15.1,15.1,0,0,1,405.06,1161.42Zm4.68-9.5a12.12,12.12,0,0,0,4.53-1.09v-18a12.16,12.16,0,0,0-5-1,4.45,4.45,0,0,0-4.21,2.45q-1.33,2.45-1.33,7.7c0,3.45.47,6,1.4,7.56A5,5,0,0,0,409.74,1151.92Z" style="fill:#fff"/><path d="M443.79,1118.87a7.91,7.91,0,0,1-5.51-1.87,7,7,0,0,1,0-9.94,9.05,9.05,0,0,1,11,0,7,7,0,0,1,0,9.94A7.89,7.89,0,0,1,443.79,1118.87ZM437,1160.63v-37.08h13.54v37.08Z" style="fill:#fff"/><path d="M483.61,1159.69a27.6,27.6,0,0,1-9.72,1.59q-6.84-.08-10.08-3.21t-3.24-9.9v-15.41h-5.11v-7.63l5.47-1.3,2.16-9.93h11v9.65h9.36v9.21H474.1v14.55a3.67,3.67,0,0,0,1.08,3,6,6,0,0,0,3.68.87,31,31,0,0,0,4.75-.44Z" style="fill:#fff"/><path d="M496.28,1118.87a7.91,7.91,0,0,1-5.51-1.87,7,7,0,0,1,0-9.94,9.05,9.05,0,0,1,11,0,7,7,0,0,1,0,9.94A7.91,7.91,0,0,1,496.28,1118.87Zm-6.77,41.76v-37.08h13.54v37.08Z" style="fill:#fff"/><path d="M529.61,1161.71q-9,0-14.11-5.19t-5.11-14.47q0-9.21,5.11-14.4t14.11-5.18q9,0,14.12,5.18t5.11,14.4q0,9.29-5.11,14.47T529.61,1161.71Zm0-9.51q5.55,0,5.55-10.15T529.61,1132q-5.54,0-5.54,10.08T529.61,1152.2Z" style="fill:#fff"/><path d="M578.93,1160.63v-24.34a5,5,0,0,0-.82-3.17,3.43,3.43,0,0,0-2.78-1,10.85,10.85,0,0,0-5.61,1.8v26.71H556.18v-37.08h11l1.15,3.74a25.62,25.62,0,0,1,6.62-3.67,20.21,20.21,0,0,1,6.84-1.15c3.46,0,6.1.93,7.92,2.81s2.74,4.53,2.74,8v27.36Z" style="fill:#fff"/><path d="M672.54,1175.46v-69.12h13.75v69.12Z" style="fill:#fff"/><path d="M781.55,1160.63,774.49,1128l-6.91,32.62H753l-13.47-49.9h15.27l5.83,34.49,7.13-33.48h14.11l7.13,34,5.9-35h14.76l-13.39,49.9Z" style="fill:#fff"/><path d="M830.51,1161.71q-9,0-14.11-5.19t-5.11-14.47q0-9.21,5.11-14.4t14.11-5.18q9,0,14.11,5.18t5.11,14.4q0,9.29-5.11,14.47T830.51,1161.71Zm0-9.51q5.55,0,5.54-10.15T830.51,1132q-5.55,0-5.54,10.08T830.51,1152.2Z" style="fill:#fff"/><path d="M883.57,1135.35a32,32,0,0,0-4.75-.35,25.79,25.79,0,0,0-8.21,1.22v24.41H857.08v-37.08h11l1.66,5.61q5.12-6,10.94-6a18.94,18.94,0,0,1,2.88.21Z" style="fill:#fff"/><path d="M888.25,1160.63v-53.28h13.4v31.46l10.65-15.26h15.55L914,1140.83l15.34,19.8H913.24l-11.59-16.56v16.56Z" style="fill:#fff"/><path d="M948.44,1150.19a1.91,1.91,0,0,0-.64-1.55,11.16,11.16,0,0,0-2.67-1.33l-5.33-2.09a15.09,15.09,0,0,1-6.55-4.43,11,11,0,0,1-2-6.87,9.81,9.81,0,0,1,2-6.13,12.47,12.47,0,0,1,5.47-4,22.18,22.18,0,0,1,8.1-1.36,26,26,0,0,1,12.09,2.81v8.2a37.65,37.65,0,0,0-10.94-1.8,9.66,9.66,0,0,0-3.46.44,1.56,1.56,0,0,0-1,1.58,1.75,1.75,0,0,0,.75,1.44,11.6,11.6,0,0,0,2.56,1.29l5.33,2.09q5,1.95,6.84,4.32a10.39,10.39,0,0,1,1.87,6.55,11,11,0,0,1-4.21,9q-4.22,3.35-11.42,3.35-8.34,0-13.82-3.17v-8.35a67.22,67.22,0,0,0,7.31,1.69,37.18,37.18,0,0,0,5.87.47,6.16,6.16,0,0,0,3-.54A1.81,1.81,0,0,0,948.44,1150.19Z" style="fill:#fff"/><path d="M989.63,1160.63v-24.34a5,5,0,0,0-.83-3.17,3.4,3.4,0,0,0-2.77-1,10.85,10.85,0,0,0-5.62,1.8v26.71H966.88v-53.28h13.53v19.22a24.14,24.14,0,0,1,6-3.13,19,19,0,0,1,6.12-1c3.45,0,6.09.93,7.92,2.81s2.73,4.53,2.73,8v27.36Z" style="fill:#fff"/><path d="M1029.59,1161.71q-9,0-14.11-5.19t-5.12-14.47q0-9.21,5.12-14.4t14.11-5.18q9,0,14.11,5.18t5.11,14.4q0,9.29-5.11,14.47T1029.59,1161.71Zm0-9.51q5.54,0,5.54-10.15t-5.54-10.08q-5.55,0-5.55,10.08T1029.59,1152.2Z" style="fill:#fff"/><path d="M1056.15,1175.46v-51.91h11l1,3.31a15.39,15.39,0,0,1,5.07-3.24,16,16,0,0,1,5.94-1.15,13.2,13.2,0,0,1,11,5.11q4,5.12,4,14a25.7,25.7,0,0,1-2,10.62,15.63,15.63,0,0,1-5.58,6.87,14.08,14.08,0,0,1-8,2.38,16.16,16.16,0,0,1-4.79-.72,13,13,0,0,1-4.07-2v16.78Zm18.36-43.49a11.23,11.23,0,0,0-4.82,1.08V1151a11.23,11.23,0,0,0,4.82,1.08,4.88,4.88,0,0,0,4.61-2.38q1.37-2.37,1.37-7.63a24,24,0,0,0-.57-5.76A6,6,0,0,0,1078,1133,5.5,5.5,0,0,0,1074.51,1132Z" style="fill:#fff"/><path d="M1116.27,1150.19a1.91,1.91,0,0,0-.64-1.55,11.16,11.16,0,0,0-2.67-1.33l-5.33-2.09a15.09,15.09,0,0,1-6.55-4.43,11,11,0,0,1-2-6.87,9.81,9.81,0,0,1,2-6.13,12.47,12.47,0,0,1,5.47-4,22.18,22.18,0,0,1,8.1-1.36,26,26,0,0,1,12.09,2.81v8.2a37.65,37.65,0,0,0-10.94-1.8,9.66,9.66,0,0,0-3.46.44,1.56,1.56,0,0,0-1,1.58,1.75,1.75,0,0,0,.75,1.44,11.6,11.6,0,0,0,2.56,1.29l5.33,2.09q5,1.95,6.84,4.32a10.39,10.39,0,0,1,1.87,6.55,11,11,0,0,1-4.21,9q-4.21,3.35-11.42,3.35-8.34,0-13.82-3.17v-8.35a67.22,67.22,0,0,0,7.31,1.69,37.18,37.18,0,0,0,5.87.47,6.16,6.16,0,0,0,2.95-.54A1.81,1.81,0,0,0,1116.27,1150.19Z" style="fill:#fff"/><path d="M1176.54,1175.46v-69.12h13.75v69.12Z" style="fill:#fff"/><path d="M1269.64,1161.85q-10.37,0-16.09-5.07t-5.73-14.44v-31.61h13.9v32c0,2.64.67,4.65,2,6a7.94,7.94,0,0,0,5.91,2q8,0,8-8.06v-32h13.9v31.68q0,9.28-5.76,14.37T1269.64,1161.85Z" style="fill:#fff"/><path d="M1301.17,1175.46v-51.91h11l1,3.31a15.39,15.39,0,0,1,5.07-3.24,16,16,0,0,1,5.94-1.15,13.2,13.2,0,0,1,11,5.11q4,5.12,4,14a25.7,25.7,0,0,1-2,10.62,15.63,15.63,0,0,1-5.58,6.87,14.08,14.08,0,0,1-8,2.38,16.16,16.16,0,0,1-4.79-.72,13,13,0,0,1-4.07-2v16.78Zm18.36-43.49a11.23,11.23,0,0,0-4.82,1.08V1151a11.23,11.23,0,0,0,4.82,1.08,4.88,4.88,0,0,0,4.61-2.38q1.36-2.37,1.37-7.63a23.39,23.39,0,0,0-.58-5.76,5.93,5.93,0,0,0-1.87-3.28A5.5,5.5,0,0,0,1319.53,1132Z" style="fill:#fff"/><path d="M1359.71,1161.42a13.22,13.22,0,0,1-11-5.11q-4-5.11-4-14a26,26,0,0,1,2-10.59,15.71,15.71,0,0,1,5.51-6.84,14.12,14.12,0,0,1,8.06-2.37,14.41,14.41,0,0,1,8.72,2.73v-17.85h13.53v53.28h-11.37l-1.08-3.31a13.79,13.79,0,0,1-4.65,3A15.06,15.06,0,0,1,1359.71,1161.42Zm4.68-9.5a12.12,12.12,0,0,0,4.54-1.09v-18a12.16,12.16,0,0,0-5-1,4.46,4.46,0,0,0-4.22,2.45c-.88,1.63-1.33,4.2-1.33,7.7s.47,6,1.41,7.56A5,5,0,0,0,1364.39,1151.92Z" style="fill:#fff"/><path d="M1412.77,1160.63l-1-2.88a15.52,15.52,0,0,1-4.9,3.09,15.17,15.17,0,0,1-5.62,1.08,12,12,0,0,1-8.6-3.09,11.9,11.9,0,0,1-1.33-14.73,12.43,12.43,0,0,1,5.33-4.25,19.12,19.12,0,0,1,7.7-1.47,32.37,32.37,0,0,1,6.48.65v-1.87c0-2-.46-3.41-1.37-4.18s-2.52-1.15-4.82-1.15a43.16,43.16,0,0,0-12.31,2.23v-8.35a28.14,28.14,0,0,1,7.12-2.38,41.94,41.94,0,0,1,8.57-.86q7.92,0,11.63,3.2t3.71,10.12v24.84Zm-7.12-7.28a7.08,7.08,0,0,0,2.8-.61,7.31,7.31,0,0,0,2.38-1.54v-5.33a28.2,28.2,0,0,0-4-.29c-3.22,0-4.82,1.34-4.82,4a3.78,3.78,0,0,0,1,2.74A3.48,3.48,0,0,0,1405.65,1153.35Z" style="fill:#fff"/><path d="M1456.26,1159.69a27.6,27.6,0,0,1-9.72,1.59q-6.84-.08-10.08-3.21t-3.24-9.9v-15.41h-5.11v-7.63l5.47-1.3,2.16-9.93h11v9.65h9.36v9.21h-9.36v14.55a3.67,3.67,0,0,0,1.08,3,5.94,5.94,0,0,0,3.67.87,30.88,30.88,0,0,0,4.75-.44Z" style="fill:#fff"/><path d="M1472.6,1145.51a6.69,6.69,0,0,0,2.78,5.22c1.6,1.08,4,1.62,7.23,1.62a42.48,42.48,0,0,0,11.23-1.88v8.28a26.47,26.47,0,0,1-6.55,2.17,37.63,37.63,0,0,1-7.56.79q-19.44,0-19.44-19.59,0-9.21,5-14.43t13.82-5.22q7.5,0,11.6,4t4.1,11.42a35.62,35.62,0,0,1-.25,3.92c-.17,1.51-.35,2.75-.54,3.71Zm6.12-14a5.57,5.57,0,0,0-4.17,1.62,7.7,7.7,0,0,0-2,4.64h10.8v-.86Q1483.4,1131.47,1478.72,1131.47Z" style="fill:#fff"/><path d="M1516.81,1150.19a1.89,1.89,0,0,0-.65-1.55,11,11,0,0,0-2.66-1.33l-5.33-2.09a15,15,0,0,1-6.55-4.43,11,11,0,0,1-2-6.87,9.81,9.81,0,0,1,2-6.13,12.5,12.5,0,0,1,5.48-4,22.1,22.1,0,0,1,8.1-1.36,26,26,0,0,1,12.09,2.81v8.2a37.65,37.65,0,0,0-10.94-1.8,9.58,9.58,0,0,0-3.46.44,1.57,1.57,0,0,0-1,1.58,1.76,1.76,0,0,0,.76,1.44,11.37,11.37,0,0,0,2.56,1.29l5.32,2.09q5,1.95,6.84,4.32a10.33,10.33,0,0,1,1.88,6.55,10.93,10.93,0,0,1-4.22,9q-4.2,3.35-11.41,3.35-8.35,0-13.82-3.17v-8.35a66.7,66.7,0,0,0,7.31,1.69,37.15,37.15,0,0,0,5.86.47,6.18,6.18,0,0,0,3-.54A1.81,1.81,0,0,0,1516.81,1150.19Z" style="fill:#fff"/></svg>